<?xml version="1.0" standalone="no"?>
<!DOCTYPE svg PUBLIC "-//W3C//DTD SVG 20010904//EN"
 "http://www.w3.org/TR/2001/REC-SVG-20010904/DTD/svg10.dtd">
<svg version="1.0" xmlns="http://www.w3.org/2000/svg"
 width="1080.000000pt" height="1080.000000pt" viewBox="0 0 1080.000000 1080.000000"
 preserveAspectRatio="xMidYMid meet">
<metadata>
Created by potrace 1.14, written by Peter Selinger 2001-2017
</metadata>
<g transform="translate(0.000000,1080.000000) scale(0.100000,-0.100000)"
fill="#000000" stroke="none">
<path d="M5430 9063 l-1 -1738 -182 -818 c-100 -450 -186 -818 -191 -818 -8 0
-168 319 -548 1096 -1193 2437 -1190 2431 -1314 2544 -145 132 -447 212 -637
167 -129 -30 -249 -108 -330 -213 -88 -115 -121 -203 -182 -479 -25 -115 -59
-267 -75 -339 -27 -117 -104 -467 -336 -1520 -41 -187 -88 -398 -104 -470 -67
-293 -380 -1716 -394 -1794 -59 -314 43 -556 289 -683 180 -93 428 -132 593
-93 160 38 288 144 365 305 25 52 55 129 66 170 11 41 142 629 292 1305 150
677 276 1234 280 1239 5 5 55 -87 112 -205 118 -242 274 -560 702 -1429 164
-333 342 -695 395 -805 54 -110 177 -362 274 -560 l177 -360 -71 -325 c-125
-566 -300 -1361 -327 -1480 -34 -152 -42 -329 -19 -420 53 -207 178 -343 371
-402 104 -32 275 -30 409 5 135 36 251 94 325 163 l61 56 0 -581 0 -581 2685
0 2685 0 0 5400 0 5400 -2685 0 -2685 0 0 -1737z m964 -369 c387 -74 586 -318
546 -672 -6 -51 -57 -306 -115 -566 -58 -260 -105 -480 -105 -488 0 -9 31 -46
69 -83 86 -83 156 -170 408 -500 108 -143 281 -369 383 -501 102 -133 264
-344 360 -470 274 -359 521 -682 680 -889 80 -104 283 -369 450 -588 168 -219
392 -512 498 -650 106 -139 228 -299 272 -357 132 -173 190 -315 190 -465 0
-295 -241 -501 -638 -546 -186 -21 -339 19 -478 124 -118 90 -223 214 -454
540 -174 245 -230 317 -246 317 -18 0 -983 -211 -1419 -310 -71 -17 -335 -75
-584 -130 -250 -55 -458 -103 -462 -107 -7 -9 -12 -32 -80 -398 -73 -394 -133
-605 -204 -720 l-24 -40 -1 3083 0 3082 95 433 c52 237 107 466 121 507 97
283 311 431 594 413 36 -2 100 -11 144 -19z"/>
<path d="M6217 4713 c-179 -811 -237 -1084 -237 -1122 0 -19 4 -22 23 -19 353
73 1497 335 1497 343 0 6 -35 60 -78 120 -43 61 -179 252 -302 425 -123 173
-308 432 -410 576 -102 143 -212 299 -245 347 -33 47 -65 86 -70 86 -6 1 -86
-339 -178 -756z"/>
</g>
</svg>
